<svg xmlns="http://www.w3.org/2000/svg" version="1.1" xmlns:xlink="http://www.w3.org/1999/xlink" xmlns:svgjs="http://svgjs.dev/svgjs" width="1500" height="1500" viewBox="0 0 1500 1500"><rect width="1500" height="1500" fill="#ffffff"></rect><g transform="matrix(0.6666666666666666,0,0,0.6666666666666666,249.39466652907646,538.225911359709)"><svg viewBox="0 0 396 168" data-background-color="#ffffff" preserveAspectRatio="xMidYMid meet" height="636" width="1500" xmlns="http://www.w3.org/2000/svg" xmlns:xlink="http://www.w3.org/1999/xlink"><g id="tight-bounds" transform="matrix(1,0,0,1,0.23971205448572164,-0.08951204818659164)"><svg viewBox="0 0 395.52 168.17879061026397" height="168.17879061026397" width="395.52"><g><svg viewBox="0 0 395.52 168.17879061026397" height="168.17879061026397" width="395.52"><g transform="matrix(1,0,0,1,0,110.46876184981627)"><svg viewBox="0 0 395.52 57.7100287604477" height="57.7100287604477" width="395.52"><g id="textblocktransform"><svg viewBox="0 0 395.52 57.7100287604477" height="57.7100287604477" width="395.52" id="textblock"><g><svg viewBox="0 0 395.52 57.7100287604477" height="57.7100287604477" width="395.52"><g transform="matrix(1,0,0,1,0,0)"><svg width="395.52" viewBox="2.5701524945893572 -34.48524310414086 329.6623675054107 48.1008307155956" height="57.7100287604477" data-palette-color="#2d4f8f"><path d="M2.745-2.398v0c-0.226-1.745-0.232-3.452-0.019-5.12 0.213-1.675 0.619-3.26 1.219-4.756 0.598-1.503 1.376-2.898 2.332-4.185 0.955-1.293 2.064-2.439 3.325-3.436 1.263-0.991 2.666-1.814 4.208-2.471 1.536-0.649 3.19-1.089 4.961-1.319v0c1.395-0.181 2.633-0.251 3.714-0.209 1.082 0.048 2.034 0.16 2.857 0.336 0.823 0.176 1.524 0.397 2.103 0.665 0.578 0.261 1.062 0.521 1.452 0.78v0c-0.02 0.003-0.022 0.06-0.008 0.172v0c0.031 0.238 0.107 0.672 0.23 1.301 0.123 0.636 0.264 1.337 0.423 2.103 0.154 0.773 0.303 1.561 0.448 2.363 0.143 0.795 0.253 1.486 0.329 2.074v0c0.013 0.099-0.003 0.212-0.047 0.339-0.051 0.128-0.205 0.208-0.462 0.242v0c-0.139 0.018-0.317 0.018-0.535-0.002v0c-0.343-0.056-0.792-0.22-1.344-0.491-0.554-0.278-1.192-0.561-1.916-0.851-0.729-0.282-1.529-0.518-2.4-0.707-0.871-0.183-1.799-0.211-2.784-0.083v0c-1.309 0.17-2.462 0.581-3.46 1.235-0.998 0.654-1.811 1.482-2.441 2.484-0.63 1.003-1.072 2.156-1.326 3.46-0.248 1.303-0.276 2.694-0.084 4.175v0c0.169 1.302 0.472 2.527 0.909 3.674 0.439 1.153 1.006 2.135 1.703 2.945 0.697 0.817 1.514 1.437 2.45 1.861 0.935 0.417 1.974 0.551 3.117 0.402v0c0.906-0.117 1.705-0.251 2.398-0.401 0.692-0.157 1.333-0.344 1.924-0.562 0.583-0.223 1.15-0.492 1.701-0.805 0.551-0.313 1.136-0.699 1.756-1.156v0c0.031-0.018 0.11-0.034 0.235-0.05v0c0.112-0.015 0.194 0.019 0.245 0.099 0.051 0.081 0.094 0.257 0.129 0.528v0l0.371 2.866c0.068 0.522 0.131 1.035 0.19 1.538 0.052 0.504 0.1 0.955 0.145 1.353 0.045 0.398 0.08 0.722 0.106 0.974 0.025 0.245 0.028 0.369 0.008 0.372v0c-0.674 0.558-1.408 1.036-2.204 1.435-0.794 0.405-1.624 0.748-2.488 1.029-0.858 0.279-1.729 0.506-2.615 0.681-0.886 0.169-1.742 0.306-2.568 0.414v0c-2.241 0.29-4.396 0.136-6.463-0.463-2.067-0.593-3.92-1.559-5.559-2.9-1.639-1.34-3.01-3.025-4.113-5.053-1.102-2.022-1.82-4.315-2.152-6.88zM47.535 9.887v0c-2.248 0.234-4.259 0.07-6.033-0.489-1.78-0.552-3.307-1.379-4.581-2.48-1.274-1.101-2.282-2.417-3.024-3.949-0.735-1.526-1.191-3.144-1.369-4.854v0c-0.177-1.704-0.067-3.354 0.33-4.951 0.397-1.603 1.035-3.067 1.917-4.391 0.875-1.324 1.972-2.47 3.292-3.439 1.321-0.962 2.812-1.676 4.473-2.144v0c0.251-0.039 0.371-0.109 0.36-0.208v0c-0.018-0.172-0.055-0.333-0.11-0.481-0.056-0.148-0.089-0.279-0.101-0.392v0c-0.018-0.172 0.003-0.295 0.062-0.368 0.053-0.066 0.123-0.103 0.21-0.112v0c3.044-0.316 5.669-0.24 7.875 0.227 2.214 0.474 4.053 1.238 5.517 2.292 1.464 1.061 2.586 2.372 3.364 3.934 0.773 1.569 1.256 3.284 1.45 5.148v0c0.247 2.381 0.07 4.544-0.533 6.489-0.608 1.953-1.535 3.648-2.779 5.085-1.245 1.436-2.754 2.588-4.527 3.456-1.773 0.868-3.704 1.41-5.793 1.627zM41.712-3.101v0c0.09 0.862 0.271 1.704 0.544 2.528 0.267 0.83 0.648 1.565 1.144 2.203 0.496 0.646 1.108 1.145 1.834 1.499 0.733 0.346 1.61 0.466 2.632 0.36v0c0.726-0.109 1.349-0.338 1.869-0.687 0.519-0.356 0.957-0.79 1.312-1.303 0.35-0.505 0.623-1.07 0.819-1.693 0.204-0.618 0.349-1.249 0.437-1.895 0.087-0.646 0.132-1.274 0.136-1.885-0.004-0.616-0.031-1.17-0.082-1.66v0c-0.086-0.829-0.293-1.632-0.622-2.409-0.328-0.77-0.765-1.432-1.312-1.985-0.541-0.56-1.185-0.99-1.934-1.287-0.749-0.304-1.587-0.408-2.515-0.312v0c-0.955 0.099-1.731 0.468-2.328 1.107-0.591 0.631-1.04 1.381-1.345 2.251-0.305 0.87-0.499 1.774-0.583 2.715-0.077 0.933-0.08 1.751-0.006 2.453zM65.349-13.563v0c0.009-2.202-0.017-4.381-0.077-6.537-0.06-2.149-0.115-4.356-0.165-6.619v0c-0.011-0.534 0.011-0.904 0.068-1.11 0.056-0.205 0.225-0.353 0.504-0.443v0c1.466-0.391 2.934-0.792 4.405-1.203 1.471-0.405 2.938-0.899 4.401-1.484v0c0.045-0.024 0.117-0.04 0.217-0.048v0c0.173-0.015 0.266 0.058 0.279 0.217v0l-0.244 34.502 0.035 0.408c0.012 0.146-0.031 0.267-0.131 0.362-0.106 0.096-0.363 0.218-0.772 0.366v0l-6.084 2.829c-0.173 0.095-0.398 0.197-0.677 0.308-0.278 0.117-0.553 0.187-0.825 0.21v0c-0.226 0.019-0.427-0.021-0.602-0.12-0.176-0.099-0.275-0.285-0.298-0.557v0l-0.012-0.14c-0.009-1.625-0.019-3.216-0.029-4.774-0.01-1.551-0.018-3.156-0.023-4.815 0.001-1.659 0.004-3.412 0.01-5.259 0.005-1.854 0.012-3.885 0.02-6.093zM80.345-14.751v0c0.037-2.202 0.038-4.38 0.005-6.537-0.033-2.15-0.06-4.357-0.081-6.621v0c-0.005-0.534 0.022-0.904 0.081-1.108 0.059-0.205 0.229-0.351 0.51-0.438v0c1.471-0.372 2.944-0.755 4.42-1.147 1.476-0.386 2.949-0.862 4.419-1.428v0c0.045-0.023 0.118-0.038 0.218-0.046v0c0.173-0.012 0.265 0.061 0.276 0.221v0l-0.678 34.496 0.029 0.409c0.01 0.146-0.034 0.266-0.134 0.36-0.107 0.095-0.366 0.213-0.777 0.357v0l-6.12 2.752c-0.174 0.093-0.401 0.192-0.68 0.299-0.279 0.113-0.555 0.18-0.828 0.199v0c-0.226 0.016-0.426-0.026-0.601-0.127-0.174-0.101-0.271-0.288-0.29-0.561v0l-0.01-0.14c0.011-1.625 0.021-3.216 0.03-4.774 0.01-1.551 0.022-3.156 0.038-4.815 0.022-1.659 0.047-3.412 0.076-5.258 0.028-1.853 0.06-3.884 0.097-6.093zM120.377-23.945l-1.301 22.519c-0.01 0.067-0.013 0.128-0.011 0.181 0.003 0.06 0.006 0.113 0.009 0.16v0c0.021 0.399 0.102 0.729 0.242 0.988 0.147 0.259 0.298 0.468 0.454 0.627 0.162 0.158 0.309 0.288 0.44 0.388 0.138 0.093 0.21 0.179 0.214 0.259v0c0.012 0.226-0.217 0.449-0.686 0.667v0l-6.325 3.106c-0.013 0.014-0.069 0.024-0.169 0.029v0c-0.126 0.007-0.259-0.1-0.398-0.32-0.138-0.213-0.276-0.49-0.414-0.829-0.138-0.34-0.271-0.703-0.397-1.091-0.127-0.387-0.239-0.745-0.337-1.074v0c-0.944 1.225-1.987 2.137-3.131 2.738-1.143 0.607-2.29 0.941-3.442 1.002v0c-1.345 0.071-2.672-0.157-3.981-0.682-1.316-0.525-2.499-1.311-3.549-2.357-1.05-1.046-1.918-2.329-2.605-3.849-0.681-1.52-1.072-3.252-1.174-5.195v0c-0.12-2.29 0.103-4.398 0.669-6.324 0.567-1.919 1.384-3.591 2.45-5.016 1.067-1.418 2.337-2.539 3.809-3.364 1.472-0.825 3.057-1.282 4.755-1.371v0c1.205-0.063 2.356 0.12 3.453 0.549 1.098 0.436 2.149 1.012 3.155 1.727v0c0.068-0.484 0.105-0.87 0.11-1.157-0.002-0.294 0.019-0.522 0.064-0.684 0.052-0.163 0.156-0.275 0.313-0.337 0.157-0.068 0.417-0.129 0.781-0.181v0c1.143-0.22 2.287-0.427 3.432-0.621 1.138-0.2 2.328-0.363 3.57-0.488zM110.785-2.943l0.635-7.163c0.112-0.92 0.173-1.785 0.184-2.594 0.017-0.815 0.025-1.56 0.023-2.234v0c-0.27-0.179-0.557-0.365-0.86-0.556-0.31-0.191-0.644-0.37-1-0.538-0.349-0.169-0.717-0.299-1.102-0.393-0.378-0.087-0.777-0.119-1.196-0.097v0c-0.865 0.045-1.576 0.363-2.133 0.953-0.556 0.59-0.993 1.304-1.31 2.142-0.317 0.831-0.528 1.71-0.633 2.637-0.105 0.92-0.139 1.733-0.102 2.438v0c0.133 2.53 0.563 4.366 1.291 5.51 0.727 1.137 1.683 1.674 2.868 1.612v0c0.479-0.025 1.008-0.186 1.587-0.484 0.578-0.304 1.161-0.715 1.748-1.233zM134.916-14.224l-0.551 9.358c0.168 0.316 0.407 0.633 0.716 0.951 0.302 0.319 0.653 0.609 1.053 0.872 0.4 0.263 0.836 0.471 1.308 0.626 0.471 0.161 0.953 0.235 1.446 0.221v0c0.693-0.019 1.336-0.306 1.928-0.862 0.599-0.556 1.113-1.29 1.542-2.201 0.436-0.919 0.764-1.964 0.986-3.138 0.229-1.167 0.327-2.376 0.293-3.629v0c-0.02-0.766-0.11-1.494-0.268-2.184-0.152-0.683-0.378-1.277-0.678-1.782-0.307-0.505-0.691-0.905-1.152-1.2-0.468-0.294-1.022-0.433-1.662-0.416v0c-1.046 0.028-1.994 0.36-2.844 0.997-0.844 0.629-1.549 1.425-2.117 2.387zM125.659 4.39v0c-0.225 0.053-0.401 0.081-0.528 0.084v0c-0.513 0.014-0.778-0.283-0.794-0.889v0c-0.002-0.08-0.001-0.16 0.004-0.24 0.011-0.08 0.022-0.171 0.033-0.271v0l1.88-34.113c-0.001-0.047 0.001-0.093 0.006-0.14 0.005-0.047 0.008-0.087 0.007-0.12v0c-0.002-0.067-0.007-0.123-0.015-0.17-0.008-0.046-0.012-0.086-0.013-0.119v0c-0.004-0.147 0.046-0.265 0.15-0.355 0.098-0.089 0.362-0.196 0.792-0.321v0l6.715-1.79c0.179-0.038 0.41-0.118 0.694-0.238 0.29-0.121 0.569-0.185 0.835-0.193v0c0.213-0.006 0.411 0.039 0.594 0.134 0.189 0.088 0.287 0.269 0.294 0.543v0c0.001 0.033-0.002 0.067-0.007 0.1-0.006 0.034-0.008 0.064-0.008 0.09v0c-0.018 0.081-0.048 0.435-0.091 1.063-0.05 0.628-0.103 1.39-0.159 2.285-0.056 0.888-0.121 1.844-0.194 2.866-0.066 1.022-0.127 1.977-0.184 2.866-0.056 0.895-0.109 1.657-0.159 2.285-0.043 0.628-0.074 0.982-0.091 1.063v0c1.152-0.804 2.348-1.483 3.587-2.036 1.232-0.553 2.475-0.846 3.727-0.88v0c1.653-0.044 3.088 0.258 4.306 0.905 1.224 0.648 2.245 1.527 3.062 2.639 0.817 1.112 1.431 2.399 1.843 3.862 0.419 1.463 0.65 2.98 0.692 4.554v0c0.034 1.266-0.049 2.539-0.248 3.818-0.199 1.286-0.503 2.518-0.912 3.695-0.409 1.185-0.932 2.299-1.571 3.343-0.639 1.044-1.378 1.954-2.218 2.731-0.84 0.776-1.78 1.395-2.821 1.856-1.048 0.461-2.192 0.709-3.432 0.741v0c-1.486 0.04-2.858-0.254-4.115-0.88-1.25-0.62-2.419-1.439-3.506-2.457v0c-0.016 0.387-0.031 0.694-0.046 0.921-0.007 0.227-0.056 0.402-0.146 0.524-0.083 0.122-0.211 0.219-0.382 0.291-0.178 0.078-0.443 0.162-0.794 0.251v0c-0.172 0.058-0.476 0.143-0.913 0.254-0.437 0.118-0.964 0.252-1.58 0.403-0.616 0.157-1.295 0.325-2.037 0.504-0.735 0.18-1.488 0.36-2.257 0.541zM166.519-13.806v0c0.016-1.76 0.244-3.451 0.686-5.074 0.441-1.629 1.061-3.144 1.86-4.544 0.799-1.406 1.761-2.681 2.884-3.824 1.124-1.15 2.379-2.132 3.767-2.947 1.387-0.808 2.89-1.431 4.507-1.87 1.611-0.432 3.309-0.641 5.095-0.625v0c1.407 0.013 2.642 0.114 3.708 0.304 1.065 0.196 1.993 0.438 2.784 0.724 0.791 0.287 1.455 0.603 1.991 0.948 0.537 0.338 0.981 0.662 1.332 0.972v0c-0.02 0-0.03 0.056-0.032 0.17v0c-0.002 0.24 0.014 0.68 0.048 1.32 0.034 0.647 0.078 1.361 0.131 2.142 0.046 0.787 0.086 1.587 0.119 2.401 0.033 0.807 0.047 1.507 0.041 2.1v0c-0.001 0.1-0.032 0.21-0.093 0.329-0.068 0.119-0.232 0.178-0.491 0.176v0c-0.14-0.001-0.316-0.026-0.53-0.075v0c-0.332-0.103-0.754-0.327-1.264-0.671-0.51-0.351-1.104-0.72-1.78-1.106-0.683-0.379-1.444-0.723-2.281-1.03-0.837-0.301-1.753-0.456-2.746-0.465v0c-1.32-0.012-2.519 0.238-3.597 0.748-1.078 0.51-1.998 1.219-2.759 2.126-0.761 0.907-1.358 1.988-1.789 3.244-0.425 1.256-0.643 2.631-0.657 4.124v0c-0.012 1.313 0.12 2.568 0.397 3.764 0.276 1.203 0.703 2.253 1.282 3.151 0.579 0.905 1.302 1.632 2.17 2.18 0.869 0.541 1.879 0.817 3.033 0.827v0c0.913 0.008 1.724-0.015 2.431-0.069 0.707-0.06 1.368-0.158 1.983-0.292 0.608-0.141 1.206-0.329 1.795-0.564 0.589-0.235 1.221-0.536 1.898-0.903v0c0.033-0.013 0.114-0.019 0.24-0.018v0c0.113 0.001 0.19 0.045 0.229 0.132 0.039 0.087 0.058 0.267 0.055 0.541v0l-0.026 2.89c-0.005 0.527-0.013 1.043-0.024 1.549-0.018 0.507-0.032 0.96-0.042 1.36-0.01 0.4-0.02 0.727-0.028 0.98-0.009 0.247-0.023 0.37-0.044 0.37v0c-0.744 0.46-1.537 0.833-2.38 1.118-0.843 0.292-1.711 0.518-2.606 0.677-0.888 0.159-1.782 0.264-2.683 0.316-0.9 0.045-1.767 0.064-2.6 0.057v0c-2.26-0.02-4.373-0.469-6.339-1.346-1.966-0.871-3.668-2.083-5.107-3.636-1.44-1.553-2.566-3.41-3.381-5.571-0.814-2.154-1.21-4.524-1.187-7.11zM224.164-23.515l-3.237 22.324c-0.016 0.066-0.024 0.126-0.026 0.179-0.002 0.06-0.004 0.113-0.005 0.16v0c-0.014 0.4 0.039 0.735 0.156 1.006 0.124 0.271 0.257 0.492 0.398 0.663 0.148 0.172 0.283 0.313 0.405 0.424 0.13 0.104 0.193 0.197 0.191 0.277v0c-0.008 0.227-0.255 0.428-0.741 0.605v0l-6.57 2.55c-0.014 0.013-0.071 0.018-0.17 0.014v0c-0.127-0.004-0.249-0.122-0.368-0.353-0.119-0.224-0.233-0.511-0.342-0.862-0.108-0.351-0.209-0.724-0.302-1.121-0.093-0.397-0.174-0.763-0.243-1.099v0c-1.046 1.139-2.164 1.958-3.355 2.458-1.191 0.507-2.363 0.741-3.516 0.702v0c-1.346-0.046-2.648-0.386-3.907-1.023-1.266-0.636-2.377-1.521-3.332-2.654-0.956-1.133-1.71-2.486-2.264-4.059-0.547-1.573-0.788-3.332-0.722-5.277v0c0.078-2.292 0.481-4.373 1.211-6.243 0.73-1.863 1.688-3.458 2.874-4.785 1.185-1.321 2.547-2.329 4.084-3.024 1.538-0.695 3.156-1.014 4.855-0.956v0c1.206 0.041 2.337 0.323 3.394 0.845 1.056 0.529 2.054 1.193 2.994 1.992v0c0.11-0.477 0.179-0.858 0.209-1.143 0.023-0.293 0.064-0.518 0.123-0.677 0.065-0.158 0.179-0.261 0.34-0.308 0.162-0.055 0.427-0.092 0.795-0.114v0c1.158-0.121 2.316-0.229 3.473-0.322 1.151-0.101 2.35-0.161 3.598-0.179zM212.798-3.418l1.25-7.081c0.191-0.907 0.326-1.763 0.407-2.568 0.087-0.811 0.159-1.552 0.215-2.224v0c-0.253-0.202-0.523-0.411-0.809-0.628-0.293-0.217-0.609-0.424-0.95-0.622-0.334-0.198-0.688-0.36-1.064-0.486-0.37-0.119-0.764-0.186-1.184-0.201v0c-0.866-0.029-1.602 0.226-2.207 0.766-0.605 0.54-1.102 1.213-1.489 2.021-0.387 0.801-0.673 1.658-0.857 2.573-0.184 0.908-0.288 1.715-0.312 2.42v0c-0.086 2.532 0.185 4.399 0.811 5.601 0.627 1.195 1.533 1.813 2.719 1.853v0c0.48 0.016 1.021-0.099 1.622-0.345 0.602-0.253 1.218-0.613 1.848-1.079zM251.679 4.687l-5.938 1.289c-0.182 0.036-0.42 0.095-0.711 0.178-0.292 0.089-0.575 0.126-0.848 0.11v0c-0.226-0.013-0.419-0.082-0.579-0.205-0.16-0.123-0.232-0.318-0.216-0.584v0l0.009-0.15c0.145-0.86 0.268-1.587 0.37-2.181 0.096-0.595 0.188-1.137 0.278-1.627 0.082-0.483 0.158-0.966 0.226-1.449 0.069-0.49 0.156-1.056 0.261-1.697 0.099-0.649 0.221-1.413 0.367-2.293 0.14-0.887 0.312-1.992 0.518-3.315v0c0.128-0.807 0.251-1.635 0.369-2.482 0.11-0.842 0.187-1.625 0.23-2.351v0c0.029-0.479 0.022-0.924-0.021-1.333-0.049-0.41-0.158-0.771-0.326-1.082-0.169-0.311-0.408-0.555-0.718-0.733-0.31-0.179-0.711-0.283-1.204-0.313v0c-0.373-0.022-0.887 0.027-1.541 0.149-0.662 0.121-1.323 0.349-1.984 0.683-0.661 0.328-1.258 0.777-1.793 1.346-0.529 0.576-0.852 1.302-0.972 2.176v0c-0.164 1.179-0.31 2.185-0.44 3.019-0.13 0.84-0.246 1.548-0.347 2.124-0.101 0.582-0.183 1.058-0.245 1.427-0.062 0.364-0.107 0.675-0.136 0.934v0c-0.024 0.059-0.057 0.23-0.1 0.515-0.051 0.291-0.108 0.635-0.172 1.032-0.064 0.397-0.129 0.817-0.195 1.26-0.067 0.45-0.132 0.874-0.196 1.271-0.064 0.397-0.117 0.738-0.161 1.022-0.037 0.292-0.058 0.467-0.062 0.527v0c-0.008 0.133-0.011 0.243-0.009 0.33 0.002 0.087 0 0.17-0.005 0.25v0c-0.008 0.126-0.074 0.233-0.2 0.319-0.125 0.079-0.4 0.163-0.826 0.252v0l-6.489 1.807c-0.183 0.049-0.421 0.115-0.713 0.198-0.292 0.076-0.574 0.106-0.847 0.09v0c-0.226-0.013-0.419-0.082-0.579-0.205-0.166-0.123-0.242-0.318-0.225-0.584v0l3.648-24.427c0.085-0.523 0.166-0.882 0.245-1.077 0.085-0.195 0.276-0.317 0.573-0.367v0c1.474-0.199 2.989-0.403 4.544-0.611 1.555-0.201 3.075-0.491 4.56-0.87v0c0.126 0.008 0.198 0.032 0.216 0.073 0.024 0.042 0.034 0.102 0.029 0.182v0c-0.002 0.033-0.008 0.083-0.019 0.149-0.01 0.059-0.042 0.201-0.095 0.425-0.053 0.224-0.13 0.56-0.231 1.008-0.101 0.455-0.238 1.088-0.413 1.899v0c1.143-0.58 2.209-1.037 3.197-1.372 0.995-0.335 1.928-0.583 2.799-0.745 0.865-0.169 1.675-0.264 2.431-0.286 0.756-0.028 1.464-0.023 2.123 0.016v0c2.256 0.134 3.856 0.914 4.8 2.339 0.943 1.432 1.333 3.519 1.17 6.261v0c-0.023 0.379-0.053 0.775-0.091 1.187-0.037 0.405-0.096 0.822-0.175 1.252v0l-1.713 10.266c-0.12 0.667-0.207 1.283-0.261 1.848-0.047 0.572-0.093 1.233-0.138 1.985v0c-0.008 0.126-0.011 0.233-0.009 0.32 0.002 0.087 0 0.164-0.004 0.23v0c-0.009 0.146-0.075 0.256-0.199 0.329-0.125 0.073-0.397 0.16-0.817 0.262zM276.781-19.132v0c0.08-0.154 0.206-0.223 0.379-0.208v0c0.033 0.003 0.066 0.009 0.099 0.018 0.033 0.009 0.066 0.016 0.099 0.018v0c1.156 0.567 2.353 1.051 3.589 1.451 1.237 0.407 2.468 0.799 3.693 1.178v0c0.3 0.086 0.438 0.275 0.414 0.568v0c-0.018 0.206-0.141 0.517-0.371 0.931v0l-11.677 20.16c-0.151 0.275-0.28 0.498-0.388 0.67-0.114 0.164-0.223 0.299-0.325 0.404-0.109 0.104-0.219 0.175-0.33 0.212-0.117 0.037-0.256 0.065-0.418 0.085v0c-1.236 0.135-2.492 0.306-3.768 0.512-1.275 0.206-2.604 0.484-3.985 0.834v0c-0.027-0.002-0.05-0.001-0.071 0.004-0.014 0.006-0.031 0.007-0.05 0.005v0l-0.17-0.014c-0.08-0.007-0.141-0.039-0.182-0.096-0.041-0.064-0.067-0.119-0.076-0.167v0c-0.187-0.705-0.387-1.615-0.6-2.731-0.219-1.116-0.458-2.361-0.715-3.734-0.251-1.373-0.511-2.834-0.78-4.382-0.269-1.555-0.545-3.134-0.83-4.738-0.278-1.603-0.557-3.192-0.838-4.769-0.274-1.576-0.544-3.067-0.812-4.475v0c-0.104-0.511-0.147-0.869-0.129-1.075v0c0.019-0.226 0.161-0.358 0.425-0.395v0c1.272-0.166 2.592-0.341 3.959-0.525 1.367-0.178 2.668-0.448 3.903-0.811v0c0.054-0.009 0.128-0.009 0.221-0.002v0c0.206 0.018 0.312 0.107 0.318 0.268v0l1.784 16.381c0.096-0.186 0.262-0.523 0.497-1.011 0.236-0.488 0.52-1.073 0.853-1.754 0.332-0.674 0.697-1.423 1.094-2.245 0.398-0.822 0.807-1.657 1.228-2.504 0.42-0.847 0.834-1.692 1.24-2.534 0.413-0.841 0.801-1.628 1.165-2.36 0.356-0.726 0.672-1.364 0.946-1.916 0.269-0.559 0.471-0.977 0.609-1.253zM313.002-16.004l-4.88 22.022c-0.02 0.065-0.034 0.124-0.039 0.177-0.006 0.06-0.012 0.113-0.017 0.159v0c-0.043 0.398-0.016 0.736 0.081 1.015 0.104 0.279 0.22 0.51 0.347 0.691 0.134 0.182 0.259 0.333 0.374 0.453 0.122 0.114 0.178 0.21 0.169 0.29v0c-0.024 0.225-0.286 0.408-0.783 0.549v0l-6.741 2.056c-0.015 0.012-0.072 0.012-0.171 0.001v0c-0.126-0.014-0.24-0.14-0.341-0.379-0.102-0.232-0.194-0.527-0.276-0.885-0.082-0.358-0.155-0.738-0.219-1.14-0.064-0.403-0.117-0.774-0.161-1.114v0c-1.127 1.058-2.303 1.792-3.528 2.203-1.225 0.417-2.411 0.564-3.558 0.439v0c-1.339-0.145-2.613-0.581-3.821-1.309-1.215-0.728-2.257-1.693-3.126-2.893-0.869-1.201-1.522-2.606-1.958-4.216-0.429-1.609-0.539-3.381-0.329-5.316v0c0.247-2.28 0.804-4.325 1.67-6.136 0.866-1.804 1.939-3.324 3.22-4.56 1.28-1.229 2.712-2.134 4.298-2.712 1.585-0.579 3.222-0.777 4.912-0.595v0c1.2 0.13 2.307 0.495 3.322 1.094 1.014 0.606 1.96 1.342 2.838 2.209v0c0.144-0.467 0.242-0.842 0.293-1.125 0.045-0.29 0.102-0.512 0.173-0.665 0.077-0.153 0.198-0.247 0.362-0.283 0.166-0.042 0.432-0.06 0.801-0.054v0c1.164-0.035 2.326-0.056 3.487-0.065 1.155-0.016 2.356 0.014 3.601 0.089zM300.18 3.196l1.771-6.97c0.257-0.891 0.456-1.734 0.596-2.53 0.147-0.802 0.274-1.536 0.379-2.202v0c-0.238-0.22-0.491-0.449-0.76-0.686-0.276-0.238-0.576-0.468-0.901-0.691-0.318-0.222-0.66-0.41-1.025-0.564-0.36-0.146-0.748-0.242-1.166-0.287v0c-0.862-0.093-1.614 0.107-2.258 0.6-0.644 0.494-1.188 1.129-1.635 1.905-0.446 0.77-0.794 1.604-1.045 2.502-0.251 0.891-0.414 1.689-0.491 2.391v0c-0.273 2.519-0.141 4.4 0.395 5.646 0.536 1.238 1.395 1.921 2.574 2.049v0c0.477 0.052 1.025-0.023 1.644-0.224 0.619-0.208 1.26-0.521 1.922-0.939zM313.166 11.462l0.536-6.555c0.003-0.02 0.001-0.033-0.004-0.041-0.012-0.008-0.018-0.019-0.016-0.033v0c0.027-0.212 0.154-0.303 0.378-0.273v0c0.145 0.019 0.267 0.092 0.365 0.218v0c0.556 0.69 1.219 1.277 1.99 1.761 0.77 0.49 1.631 0.796 2.583 0.919v0c0.251 0.033 0.549 0.044 0.893 0.035 0.345-0.016 0.674-0.067 0.988-0.154 0.32-0.086 0.594-0.226 0.821-0.418 0.226-0.186 0.359-0.437 0.4-0.755v0c0.045-0.35 0.001-0.685-0.132-1.005-0.141-0.314-0.341-0.585-0.6-0.814v0c-0.144-0.133-0.397-0.364-0.757-0.693-0.361-0.329-0.749-0.682-1.164-1.058-0.415-0.376-0.805-0.736-1.171-1.08-0.366-0.337-0.621-0.578-0.763-0.724v0c-0.65-0.635-1.148-1.258-1.493-1.867-0.35-0.617-0.599-1.237-0.747-1.861-0.148-0.624-0.209-1.267-0.183-1.93 0.018-0.656 0.074-1.352 0.169-2.086v0c0.144-1.111 0.574-2.124 1.291-3.039 0.716-0.909 1.605-1.674 2.667-2.296 1.055-0.623 2.226-1.073 3.513-1.35 1.28-0.278 2.554-0.335 3.823-0.17v0c1.051 0.136 2.065 0.429 3.043 0.878 0.977 0.449 1.856 1.111 2.637 1.985v0c-0.051 1.015-0.126 2.01-0.226 2.986-0.093 0.976-0.175 2.001-0.247 3.074v0c-0.027 0.205-0.094 0.337-0.203 0.397-0.102 0.061-0.216 0.083-0.341 0.067v0c-0.112-0.015-0.203-0.067-0.272-0.157v0c-0.325-0.398-0.653-0.794-0.986-1.186-0.339-0.393-0.703-0.747-1.093-1.059-0.389-0.319-0.811-0.592-1.265-0.82-0.454-0.234-0.952-0.385-1.494-0.455v0c-0.331-0.043-0.668-0.056-1.013-0.041-0.337 0.01-0.652 0.074-0.942 0.191-0.291 0.117-0.535 0.29-0.733 0.52-0.205 0.236-0.334 0.552-0.385 0.948v0c-0.06 0.463-0.055 0.867 0.014 1.212 0.069 0.352 0.291 0.713 0.666 1.085v0l4.044 3.579c0.741 0.661 1.328 1.291 1.761 1.892 0.426 0.6 0.751 1.18 0.975 1.74 0.217 0.559 0.344 1.107 0.382 1.642 0.032 0.529 0.016 1.047-0.05 1.557v0c-0.185 1.428-0.679 2.645-1.482 3.65-0.796 1.006-1.767 1.805-2.912 2.395-1.145 0.584-2.406 0.979-3.783 1.184-1.377 0.198-2.733 0.211-4.069 0.038v0c-1.018-0.132-1.986-0.365-2.904-0.699-0.917-0.341-1.754-0.785-2.509-1.334z" opacity="1" transform="matrix(1,0,0,1,0,0)" fill="#2d4f8f" class="wordmark-text-0" data-fill-palette-color="primary" id="text-0"></path></svg></g></svg></g></svg></g></svg></g><g transform="matrix(1,0,0,1,144.40295626605464,0)"><svg viewBox="0 0 106.7140874678907 93.37482653440436" height="93.37482653440436" width="106.7140874678907"><g><svg xmlns="http://www.w3.org/2000/svg" xmlns:xlink="http://www.w3.org/1999/xlink" version="1.1" x="0" y="0" viewBox="18 23 64 56" style="enable-background:new 0 0 100 100;" xml:space="preserve" height="93.37482653440436" width="106.7140874678907" class="icon-icon-0" data-fill-palette-color="accent" id="icon-0"><path d="M81 63h-1V30c0-0.6-0.4-1-1-1H57v-1c0-0.6-0.4-1-1-1h-5v-3c0-0.6-0.4-1-1-1s-1 0.4-1 1v3h-5c-0.6 0-1 0.4-1 1v1H21c-0.6 0-1 0.4-1 1v33h-1c-0.6 0-1 0.4-1 1v4c0 0.6 0.4 1 1 1h23.2l-5.1 8.5c-0.3 0.5-0.1 1.1 0.3 1.4C37.6 79 37.8 79 38 79c0.3 0 0.7-0.2 0.9-0.5l5.7-9.5H49v9c0 0.6 0.4 1 1 1s1-0.4 1-1v-9h4.4l5.7 9.5c0.2 0.3 0.5 0.5 0.9 0.5 0.2 0 0.4 0 0.5-0.1 0.5-0.3 0.6-0.9 0.3-1.4L57.8 69H81c0.6 0 1-0.4 1-1v-4C82 63.4 81.6 63 81 63zM45 29h10v2H45V29zM22 31h21v1c0 0.6 0.4 1 1 1h12c0.6 0 1-0.4 1-1v-1h21v32H22V31zM80 67H20v-2h1 58 1V67z" fill="#ffe270" data-fill-palette-color="accent"></path></svg></g></svg></g><g></g></svg></g><defs></defs></svg><rect width="395.52" height="168.17879061026397" fill="none" stroke="none" visibility="hidden"></rect></g></svg></g></svg>